<svg width="100" height="100" viewBox="0 0 100 100" fill="none" xmlns="http://www.w3.org/2000/svg">
<path d="M50 100C22.4291 100 0 77.5697 0 50C0 22.4303 22.4291 0 50 0C77.5709 0 100 22.4303 100 50C100 77.5697 77.5709 100 50 100Z" fill=""/>
<path d="M64 68.5455C64 70.5225 63.2721 72.4186 61.9764 73.8166C60.6807 75.2146 58.9233 76 57.0909 76H32.9091C31.0767 76 29.3193 75.2146 28.0236 73.8166C26.7279 72.4186 26 70.5225 26 68.5455V42.4545C26 40.4775 26.7279 38.5814 28.0236 37.1834C29.3193 35.7854 31.0767 35 32.9091 35V38.7273C31.9929 38.7273 31.1142 39.12 30.4664 39.819C29.8185 40.518 29.4545 41.466 29.4545 42.4545V68.5455C29.4545 69.534 29.8185 70.482 30.4664 71.181C31.1142 71.88 31.9929 72.2727 32.9091 72.2727H57.0909C58.0071 72.2727 58.8858 71.88 59.5336 71.181C60.1815 70.482 60.5455 69.534 60.5455 68.5455H64Z" fill="white"/>
<path d="M42.9091 28.7273C41.9929 28.7273 41.1142 29.12 40.4664 29.819C39.8185 30.518 39.4545 31.466 39.4545 32.4545V58.5455C39.4545 59.534 39.8185 60.482 40.4664 61.181C41.1142 61.88 41.9929 62.2727 42.9091 62.2727H67.0909C68.0071 62.2727 68.8858 61.88 69.5336 61.181C70.1815 60.482 70.5455 59.534 70.5455 58.5455V32.4545C70.5455 31.466 70.1815 30.518 69.5336 29.819C68.8858 29.12 68.0071 28.7273 67.0909 28.7273H42.9091ZM42.9091 25H67.0909C68.9233 25 70.6807 25.7854 71.9764 27.1834C73.2721 28.5814 74 30.4775 74 32.4545V58.5455C74 60.5225 73.2721 62.4186 71.9764 63.8166C70.6807 65.2146 68.9233 66 67.0909 66H42.9091C41.0767 66 39.3193 65.2146 38.0236 63.8166C36.7279 62.4186 36 60.5225 36 58.5455V32.4545C36 30.4775 36.7279 28.5814 38.0236 27.1834C39.3193 25.7854 41.0767 25 42.9091 25V25Z" fill="white"/>
</svg>
