<svg width="56" height="45" viewBox="0 0 56 45" fill="none" xmlns="http://www.w3.org/2000/svg">
<path d="M49 2.8125C49.9283 2.8125 50.8185 3.10882 51.4749 3.63626C52.1313 4.16371 52.5 4.87908 52.5 5.625V39.375C52.5 40.1209 52.1313 40.8363 51.4749 41.3637C50.8185 41.8912 49.9283 42.1875 49 42.1875H7C6.07174 42.1875 5.1815 41.8912 4.52513 41.3637C3.86875 40.8363 3.5 40.1209 3.5 39.375V5.625C3.5 4.87908 3.86875 4.16371 4.52513 3.63626C5.1815 3.10882 6.07174 2.8125 7 2.8125H49ZM7 0C5.14348 0 3.36301 0.592632 2.05025 1.64752C0.737498 2.70242 0 4.13316 0 5.625L0 39.375C0 40.8668 0.737498 42.2976 2.05025 43.3525C3.36301 44.4074 5.14348 45 7 45H49C50.8565 45 52.637 44.4074 53.9497 43.3525C55.2625 42.2976 56 40.8668 56 39.375V5.625C56 4.13316 55.2625 2.70242 53.9497 1.64752C52.637 0.592632 50.8565 0 49 0L7 0Z" fill="white"/>
<path d="M10.86 15.04H15.54C16.4067 15.04 17.1933 15.1867 17.9 15.48C18.6067 15.7733 19.2067 16.2133 19.7 16.8C20.2067 17.3733 20.5933 18.1 20.86 18.98C21.1267 19.8467 21.26 20.86 21.26 22.02C21.26 23.18 21.1267 24.2 20.86 25.08C20.5933 25.9467 20.2067 26.6733 19.7 27.26C19.2067 27.8333 18.6067 28.2667 17.9 28.56C17.1933 28.8533 16.4067 29 15.54 29H10.86V15.04ZM15.54 27.52C16.1133 27.52 16.64 27.4267 17.12 27.24C17.6 27.04 18.0133 26.7533 18.36 26.38C18.7067 26.0067 18.9733 25.5533 19.16 25.02C19.36 24.4733 19.46 23.8533 19.46 23.16V20.88C19.46 20.1867 19.36 19.5733 19.16 19.04C18.9733 18.4933 18.7067 18.0333 18.36 17.66C18.0133 17.2867 17.6 17.0067 17.12 16.82C16.64 16.62 16.1133 16.52 15.54 16.52H12.54V27.52H15.54ZM28.198 29.24C27.0646 29.24 26.098 29.0267 25.298 28.6C24.498 28.16 23.818 27.56 23.258 26.8L24.498 25.76C24.9913 26.4133 25.538 26.9133 26.138 27.26C26.738 27.5933 27.4446 27.76 28.258 27.76C29.258 27.76 30.018 27.52 30.538 27.04C31.0713 26.56 31.338 25.92 31.338 25.12C31.338 24.4533 31.138 23.94 30.738 23.58C30.338 23.22 29.678 22.9333 28.758 22.72L27.618 22.46C26.338 22.1667 25.358 21.7267 24.678 21.14C24.0113 20.54 23.678 19.7 23.678 18.62C23.678 18.0067 23.7913 17.46 24.018 16.98C24.2446 16.5 24.558 16.1 24.958 15.78C25.3713 15.46 25.858 15.22 26.418 15.06C26.9913 14.8867 27.618 14.8 28.298 14.8C29.3513 14.8 30.2513 14.9933 30.998 15.38C31.758 15.7667 32.398 16.3333 32.918 17.08L31.658 18C31.2713 17.4667 30.8046 17.0467 30.258 16.74C29.7113 16.4333 29.0313 16.28 28.218 16.28C27.3246 16.28 26.618 16.4733 26.098 16.86C25.5913 17.2333 25.338 17.8 25.338 18.56C25.338 19.2267 25.5513 19.7333 25.978 20.08C26.418 20.4133 27.078 20.68 27.958 20.88L29.098 21.14C30.4713 21.4467 31.4646 21.9133 32.078 22.54C32.6913 23.1667 32.998 24 32.998 25.04C32.998 25.68 32.8846 26.26 32.658 26.78C32.4446 27.3 32.1313 27.74 31.718 28.1C31.3046 28.46 30.798 28.74 30.198 28.94C29.6113 29.14 28.9446 29.24 28.198 29.24ZM39.5591 22.14L37.5791 24.34V29H35.8991V15.04H37.5791V22.46H37.6391L39.6391 20.04L43.8591 15.04H45.9191L40.7191 21.02L46.2791 29H44.1991L39.5591 22.14Z" fill="white"/>
</svg>
