<svg width="100" height="100" viewBox="0 0 100 100" fill="none" xmlns="http://www.w3.org/2000/svg">
<path d="M50 100C22.4291 100 0 77.5697 0 50C0 22.4303 22.4291 0 50 0C77.5709 0 100 22.4303 100 50C100 77.5697 77.5709 100 50 100Z" fill="#7395AE"/>
<path d="M68 63.7143V44.2857C68 43.9309 67.9187 43.5809 67.7625 43.2635C67.6062 42.9461 67.3794 42.6701 67.1 42.4571L51.35 30.4571C50.9605 30.1604 50.4868 30 50 30C49.5132 30 49.0395 30.1604 48.65 30.4571L32.9 42.4571C32.6206 42.6701 32.3938 42.9461 32.2375 43.2635C32.0813 43.5809 32 43.9309 32 44.2857V63.7143C32 64.3205 32.2371 64.9019 32.659 65.3305C33.081 65.7592 33.6533 66 34.25 66H65.75C66.3467 66 66.919 65.7592 67.341 65.3305C67.7629 64.9019 68 64.3205 68 63.7143Z" stroke="white" stroke-width="3.5" stroke-linecap="round" stroke-linejoin="round"/>
<path d="M50 100C22.4291 100 0 77.5697 0 50C0 22.4303 22.4291 0 50 0C77.5709 0 100 22.4303 100 50C100 77.5697 77.5709 100 50 100Z" fill="#7395AE"/>
<path d="M50 100C22.4291 100 0 77.5697 0 50C0 22.4303 22.4291 0 50 0C77.5709 0 100 22.4303 100 50C100 77.5697 77.5709 100 50 100Z" fill="#7395AE"/>
<path d="M71 30.8125C71.9283 30.8125 72.8185 31.1088 73.4749 31.6363C74.1313 32.1637 74.5 32.8791 74.5 33.625V67.375C74.5 68.1209 74.1313 68.8363 73.4749 69.3637C72.8185 69.8912 71.9283 70.1875 71 70.1875H29C28.0717 70.1875 27.1815 69.8912 26.5251 69.3637C25.8687 68.8363 25.5 68.1209 25.5 67.375V33.625C25.5 32.8791 25.8687 32.1637 26.5251 31.6363C27.1815 31.1088 28.0717 30.8125 29 30.8125H71ZM29 28C27.1435 28 25.363 28.5926 24.0503 29.6475C22.7375 30.7024 22 32.1332 22 33.625V67.375C22 68.8668 22.7375 70.2976 24.0503 71.3525C25.363 72.4074 27.1435 73 29 73H71C72.8565 73 74.637 72.4074 75.9497 71.3525C77.2625 70.2976 78 68.8668 78 67.375V33.625C78 32.1332 77.2625 30.7024 75.9497 29.6475C74.637 28.5926 72.8565 28 71 28H29Z" fill="white"/>
<path d="M32.86 57V43.04H41.38V44.52H34.54V49.2H40.98V50.68H34.54V55.52H41.38V57H32.86ZM55.4002 45.24H55.3002L54.1202 47.58L50.7802 53.66L47.4402 47.58L46.2602 45.24H46.1602V57H44.5202V43.04H46.7602L50.7602 50.56H50.8602L54.8802 43.04H57.0402V57H55.4002V45.24ZM60.7506 57V43.04H62.4306V55.52H68.3706V57H60.7506Z" fill="white"/>
</svg>
