<svg width="100" height="100" viewBox="0 0 100 100" fill="none" xmlns="http://www.w3.org/2000/svg">
<path d="M77 74.5079V44.8254C77 44.2833 76.8757 43.7486 76.6371 43.2637C76.3984 42.7788 76.0519 42.357 75.625 42.0317L51.5625 23.6984C50.9675 23.2451 50.2438 23 49.5 23C48.7562 23 48.0325 23.2451 47.4375 23.6984L23.375 42.0317C22.9481 42.357 22.6016 42.7788 22.3629 43.2637C22.1242 43.7486 22 44.2833 22 44.8254V74.5079C22 75.4341 22.3622 76.3223 23.0068 76.9772C23.6515 77.6321 24.5258 78 25.4375 78H73.5625C74.4742 78 75.3485 77.6321 75.9932 76.9772C76.6378 76.3223 77 75.4341 77 74.5079Z" stroke="white" stroke-width="3.5" stroke-linecap="round" stroke-linejoin="round"/>
</svg>
