<svg width="100" height="100" viewBox="0 0 100 100" fill="none" xmlns="http://www.w3.org/2000/svg">
<path d="M50 100C22.4291 100 0 77.5697 0 50C0 22.4303 22.4291 0 50 0C77.5709 0 100 22.4303 100 50C100 77.5697 77.5709 100 50 100Z" fill=""/>
<path d="M65 68.5455C65 70.5225 64.2146 72.4186 62.8166 73.8166C61.4186 75.2146 59.5225 76 57.5455 76H31.4545C29.4775 76 27.5814 75.2146 26.1834 73.8166C24.7854 72.4186 24 70.5225 24 68.5455V42.4545C24 40.4775 24.7854 38.5814 26.1834 37.1834C27.5814 35.7854 29.4775 35 31.4545 35V38.7273C30.466 38.7273 29.518 39.12 28.819 39.819C28.12 40.518 27.7273 41.466 27.7273 42.4545V68.5455C27.7273 69.534 28.12 70.482 28.819 71.181C29.518 71.88 30.466 72.2727 31.4545 72.2727H57.5455C58.534 72.2727 59.482 71.88 60.181 71.181C60.88 70.482 61.2727 69.534 61.2727 68.5455H65Z" fill="white"/>
<path d="M41.4545 28.7273C40.466 28.7273 39.518 29.12 38.819 29.819C38.12 30.518 37.7273 31.466 37.7273 32.4545V58.5455C37.7273 59.534 38.12 60.482 38.819 61.181C39.518 61.88 40.466 62.2727 41.4545 62.2727H67.5455C68.534 62.2727 69.482 61.88 70.181 61.181C70.88 60.482 71.2727 59.534 71.2727 58.5455V32.4545C71.2727 31.466 70.88 30.518 70.181 29.819C69.482 29.12 68.534 28.7273 67.5455 28.7273H41.4545ZM41.4545 25H67.5455C69.5225 25 71.4186 25.7854 72.8166 27.1834C74.2146 28.5814 75 30.4775 75 32.4545V58.5455C75 60.5225 74.2146 62.4186 72.8166 63.8166C71.4186 65.2146 69.5225 66 67.5455 66H41.4545C39.4775 66 37.5814 65.2146 36.1834 63.8166C34.7854 62.4186 34 60.5225 34 58.5455V32.4545C34 30.4775 34.7854 28.5814 36.1834 27.1834C37.5814 25.7854 39.4775 25 41.4545 25V25Z" fill="white"/>
<path d="M44 53H66L56.8333 39.0011L51.3333 46.9983L49.5 45.0003L44 53ZM45.8333 38.0009C45.8333 39.6569 47.0653 40.9991 48.5833 40.9991C50.1013 40.9991 51.3333 39.6569 51.3333 38.0009C51.3333 36.3423 50.1013 35 48.5833 35C47.0653 35 45.8333 36.3423 45.8333 38.0009Z" fill="white"/>
</svg>
