<svg width="100" height="100" viewBox="0 0 100 100" fill="none" xmlns="http://www.w3.org/2000/svg">
<path d="M50 100C22.4291 100 0 77.5697 0 50C0 22.4303 22.4291 0 50 0C77.5709 0 100 22.4303 100 50C100 77.5697 77.5709 100 50 100Z" fill="#7395AE"/>
<path d="M68 63.7143V44.2857C68 43.9309 67.9187 43.5809 67.7625 43.2635C67.6062 42.9461 67.3794 42.6701 67.1 42.4571L51.35 30.4571C50.9605 30.1604 50.4868 30 50 30C49.5132 30 49.0395 30.1604 48.65 30.4571L32.9 42.4571C32.6206 42.6701 32.3938 42.9461 32.2375 43.2635C32.0813 43.5809 32 43.9309 32 44.2857V63.7143C32 64.3205 32.2371 64.9019 32.659 65.3305C33.081 65.7592 33.6533 66 34.25 66H65.75C66.3467 66 66.919 65.7592 67.341 65.3305C67.7629 64.9019 68 64.3205 68 63.7143Z" stroke="white" stroke-width="3.5" stroke-linecap="round" stroke-linejoin="round"/>
<path d="M50 100C22.4291 100 0 77.5697 0 50C0 22.4303 22.4291 0 50 0C77.5709 0 100 22.4303 100 50C100 77.5697 77.5709 100 50 100Z" fill="#7395AE"/>
<path d="M50 100C22.4291 100 0 77.5697 0 50C0 22.4303 22.4291 0 50 0C77.5709 0 100 22.4303 100 50C100 77.5697 77.5709 100 50 100Z" fill="#7395AE"/>
<path d="M71 30.8125C71.9283 30.8125 72.8185 31.1088 73.4749 31.6363C74.1313 32.1637 74.5 32.8791 74.5 33.625V67.375C74.5 68.1209 74.1313 68.8363 73.4749 69.3637C72.8185 69.8912 71.9283 70.1875 71 70.1875H29C28.0717 70.1875 27.1815 69.8912 26.5251 69.3637C25.8687 68.8363 25.5 68.1209 25.5 67.375V33.625C25.5 32.8791 25.8687 32.1637 26.5251 31.6363C27.1815 31.1088 28.0717 30.8125 29 30.8125H71ZM29 28C27.1435 28 25.363 28.5926 24.0503 29.6475C22.7375 30.7024 22 32.1332 22 33.625V67.375C22 68.8668 22.7375 70.2976 24.0503 71.3525C25.363 72.4074 27.1435 73 29 73H71C72.8565 73 74.637 72.4074 75.9497 71.3525C77.2625 70.2976 78 68.8668 78 67.375V33.625C78 32.1332 77.2625 30.7024 75.9497 29.6475C74.637 28.5926 72.8565 28 71 28H29Z" fill="white"/>
<path d="M33.2 57V55.6H35.16V44.44H33.2V43.04H38.8V44.44H36.84V55.6H38.8V57H33.2ZM45.2478 48.48L43.5678 45.38H43.5078V57H41.8678V43.04H43.8078L48.9078 51.56L50.5878 54.66H50.6478V43.04H52.2878V57H50.3478L45.2478 48.48ZM59.9284 57.24C58.7951 57.24 57.8284 57.0267 57.0284 56.6C56.2284 56.16 55.5484 55.56 54.9884 54.8L56.2284 53.76C56.7218 54.4133 57.2684 54.9133 57.8684 55.26C58.4684 55.5933 59.1751 55.76 59.9884 55.76C60.9884 55.76 61.7484 55.52 62.2684 55.04C62.8018 54.56 63.0684 53.92 63.0684 53.12C63.0684 52.4533 62.8684 51.94 62.4684 51.58C62.0684 51.22 61.4084 50.9333 60.4884 50.72L59.3484 50.46C58.0684 50.1667 57.0884 49.7267 56.4084 49.14C55.7418 48.54 55.4084 47.7 55.4084 46.62C55.4084 46.0067 55.5218 45.46 55.7484 44.98C55.9751 44.5 56.2884 44.1 56.6884 43.78C57.1018 43.46 57.5884 43.22 58.1484 43.06C58.7218 42.8867 59.3484 42.8 60.0284 42.8C61.0818 42.8 61.9818 42.9933 62.7284 43.38C63.4884 43.7667 64.1284 44.3333 64.6484 45.08L63.3884 46C63.0018 45.4667 62.5351 45.0467 61.9884 44.74C61.4418 44.4333 60.7618 44.28 59.9484 44.28C59.0551 44.28 58.3484 44.4733 57.8284 44.86C57.3218 45.2333 57.0684 45.8 57.0684 46.56C57.0684 47.2267 57.2818 47.7333 57.7084 48.08C58.1484 48.4133 58.8084 48.68 59.6884 48.88L60.8284 49.14C62.2018 49.4467 63.1951 49.9133 63.8084 50.54C64.4218 51.1667 64.7284 52 64.7284 53.04C64.7284 53.68 64.6151 54.26 64.3884 54.78C64.1751 55.3 63.8618 55.74 63.4484 56.1C63.0351 56.46 62.5284 56.74 61.9284 56.94C61.3418 57.14 60.6751 57.24 59.9284 57.24Z" fill="white"/>
</svg>
