<svg width="100" height="100" viewBox="0 0 100 100" fill="none" xmlns="http://www.w3.org/2000/svg">
<path d="M50 100C22.4291 100 0 77.5697 0 50C0 22.4303 22.4291 0 50 0C77.5709 0 100 22.4303 100 50C100 77.5697 77.5709 100 50 100Z" fill="#7395AE"/>
<path d="M68 63.7143V44.2857C68 43.9309 67.9187 43.5809 67.7625 43.2635C67.6062 42.9461 67.3794 42.6701 67.1 42.4571L51.35 30.4571C50.9605 30.1604 50.4868 30 50 30C49.5132 30 49.0395 30.1604 48.65 30.4571L32.9 42.4571C32.6206 42.6701 32.3938 42.9461 32.2375 43.2635C32.0813 43.5809 32 43.9309 32 44.2857V63.7143C32 64.3205 32.2371 64.9019 32.659 65.3305C33.081 65.7592 33.6533 66 34.25 66H65.75C66.3467 66 66.919 65.7592 67.341 65.3305C67.7629 64.9019 68 64.3205 68 63.7143Z" stroke="white" stroke-width="3.5" stroke-linecap="round" stroke-linejoin="round"/>
<path d="M50 100C22.4291 100 0 77.5697 0 50C0 22.4303 22.4291 0 50 0C77.5709 0 100 22.4303 100 50C100 77.5697 77.5709 100 50 100Z" fill="#7395AE"/>
<path d="M50 100C22.4291 100 0 77.5697 0 50C0 22.4303 22.4291 0 50 0C77.5709 0 100 22.4303 100 50C100 77.5697 77.5709 100 50 100Z" fill="#7395AE"/>
<path d="M71 30.8125C71.9283 30.8125 72.8185 31.1088 73.4749 31.6363C74.1313 32.1637 74.5 32.8791 74.5 33.625V67.375C74.5 68.1209 74.1313 68.8363 73.4749 69.3637C72.8185 69.8912 71.9283 70.1875 71 70.1875H29C28.0717 70.1875 27.1815 69.8912 26.5251 69.3637C25.8687 68.8363 25.5 68.1209 25.5 67.375V33.625C25.5 32.8791 25.8687 32.1637 26.5251 31.6363C27.1815 31.1088 28.0717 30.8125 29 30.8125H71ZM29 28C27.1435 28 25.363 28.5926 24.0503 29.6475C22.7375 30.7024 22 32.1332 22 33.625V67.375C22 68.8668 22.7375 70.2976 24.0503 71.3525C25.363 72.4074 27.1435 73 29 73H71C72.8565 73 74.637 72.4074 75.9497 71.3525C77.2625 70.2976 78 68.8668 78 67.375V33.625C78 32.1332 77.2625 30.7024 75.9497 29.6475C74.637 28.5926 72.8565 28 71 28H29Z" fill="white"/>
<path d="M37.78 57.24C36.6467 57.24 35.68 57.0267 34.88 56.6C34.08 56.16 33.4 55.56 32.84 54.8L34.08 53.76C34.5733 54.4133 35.12 54.9133 35.72 55.26C36.32 55.5933 37.0267 55.76 37.84 55.76C38.84 55.76 39.6 55.52 40.12 55.04C40.6533 54.56 40.92 53.92 40.92 53.12C40.92 52.4533 40.72 51.94 40.32 51.58C39.92 51.22 39.26 50.9333 38.34 50.72L37.2 50.46C35.92 50.1667 34.94 49.7267 34.26 49.14C33.5933 48.54 33.26 47.7 33.26 46.62C33.26 46.0067 33.3733 45.46 33.6 44.98C33.8267 44.5 34.14 44.1 34.54 43.78C34.9533 43.46 35.44 43.22 36 43.06C36.5733 42.8867 37.2 42.8 37.88 42.8C38.9333 42.8 39.8333 42.9933 40.58 43.38C41.34 43.7667 41.98 44.3333 42.5 45.08L41.24 46C40.8533 45.4667 40.3867 45.0467 39.84 44.74C39.2933 44.4333 38.6133 44.28 37.8 44.28C36.9067 44.28 36.2 44.4733 35.68 44.86C35.1733 45.2333 34.92 45.8 34.92 46.56C34.92 47.2267 35.1333 47.7333 35.56 48.08C36 48.4133 36.66 48.68 37.54 48.88L38.68 49.14C40.0533 49.4467 41.0467 49.9133 41.66 50.54C42.2733 51.1667 42.58 52 42.58 53.04C42.58 53.68 42.4667 54.26 42.24 54.78C42.0267 55.3 41.7133 55.74 41.3 56.1C40.8867 56.46 40.38 56.74 39.78 56.94C39.1933 57.14 38.5267 57.24 37.78 57.24ZM50.4011 57.24C48.6278 57.24 47.2478 56.64 46.2611 55.44C45.2744 54.2267 44.7811 52.4467 44.7811 50.1C44.7811 47.7533 45.2744 45.9533 46.2611 44.7C47.2478 43.4333 48.6278 42.8 50.4011 42.8C51.5744 42.8 52.5544 43.0667 53.3411 43.6C54.1411 44.1333 54.7611 44.8867 55.2011 45.86L53.8411 46.68C53.5611 45.96 53.1344 45.3867 52.5611 44.96C51.9878 44.52 51.2678 44.3 50.4011 44.3C49.8011 44.3 49.2611 44.4133 48.7811 44.64C48.3144 44.8667 47.9144 45.1933 47.5811 45.62C47.2611 46.0333 47.0144 46.5333 46.8411 47.12C46.6678 47.6933 46.5811 48.34 46.5811 49.06V51.14C46.5811 52.58 46.9144 53.7067 47.5811 54.52C48.2478 55.3333 49.1878 55.74 50.4011 55.74C51.2944 55.74 52.0411 55.5133 52.6411 55.06C53.2411 54.5933 53.6811 53.98 53.9611 53.22L55.3011 54.06C54.8611 55.0467 54.2278 55.8267 53.4011 56.4C52.5744 56.96 51.5744 57.24 50.4011 57.24ZM57.903 57V43.04H66.423V44.52H59.583V49.2H66.023V50.68H59.583V55.52H66.423V57H57.903Z" fill="white"/>
</svg>
